# xmcd
#
# Track frame offsets: 
#        150
#        2879
#        15817
#        25315
#        35749
#        45336
#        51586
#        58036
#        66668
#        76361
#        85879
#        95340
#
# Disc length: 1310 seconds
#
# Revision: 0
# Processed by: cddbd v1.5.2PL0 Copyright (c) Steve Scherf et al.
# Submitted via: ExactAudioCopy v1.3
#
DISCID=96051c0c
DTITLE=Kentucky Colonels - Kentucky Colonels 1966
DYEAR=1996
DGENRE=Bluegrass
TTITLE0=Soldiers Joy
TTITLE1=The Fugitive
TTITLE2=Ruben's Train
TTITLE3=One Tear
TTITLE4=I Might Take You Back Again
TTITLE5=Take Off Your Cheaters
TTITLE6=Old Country Church
TTITLE7=Earl's Breakdown
TTITLE8=Give Your Message To Your Heart
TTITLE9=Rubin's Train 2
TTITLE10=Cotton Eyed Joe
TTITLE11=Soldier's Joy Conclusion
EXTD=
EXTT0=
EXTT1=
EXTT2=
EXTT3=
EXTT4=
EXTT5=
EXTT6=
EXTT7=
EXTT8=
EXTT9=
EXTT10=
EXTT11=
PLAYORDER=
